<?xml version="1.0" encoding="UTF-8" standalone="no"?>
<!-- Created with Inkscape (http://www.inkscape.org/) -->

<svg
   width="54.536205mm"
   height="37.740688mm"
   viewBox="0 0 54.536205 37.740688"
   version="1.1"
   id="svg5"
   xml:space="preserve"
   inkscape:version="1.2 (dc2aedaf03, 2022-05-15)"
   sodipodi:docname="technotrends logo.svg"
   xmlns:inkscape="http://www.inkscape.org/namespaces/inkscape"
   xmlns:sodipodi="http://sodipodi.sourceforge.net/DTD/sodipodi-0.dtd"
   xmlns="http://www.w3.org/2000/svg"
   xmlns:svg="http://www.w3.org/2000/svg"><sodipodi:namedview
     id="namedview7"
     pagecolor="#ffffff"
     bordercolor="#000000"
     borderopacity="0.25"
     inkscape:showpageshadow="2"
     inkscape:pageopacity="0.0"
     inkscape:pagecheckerboard="0"
     inkscape:deskcolor="#d1d1d1"
     inkscape:document-units="mm"
     showgrid="false"
     inkscape:zoom="0.64693624"
     inkscape:cx="-92.744843"
     inkscape:cy="328.47132"
     inkscape:window-width="1471"
     inkscape:window-height="1242"
     inkscape:window-x="851"
     inkscape:window-y="602"
     inkscape:window-maximized="0"
     inkscape:current-layer="layer2" /><defs
     id="defs2" /><g
     inkscape:groupmode="layer"
     id="layer2"
     inkscape:label="Layer 2"
     transform="translate(-79.371381,-107.97045)"><path
       style="fill:#000000;stroke-width:0.264583"
       d="m 102.65373,122.38696 -7.66836,4.29428 -1.635916,-1.32918 -0.613468,-6.44142 1.635916,-3.68081 0.920203,-0.51122 0.204488,-1.84041 3.987546,-3.27183 3.169591,-1.43143 2.35163,-0.20449 0.20448,9.40652 -1.94265,1.63592 -0.10224,-1.63592 -1.32918,-0.61347 -1.53367,0.71572 -0.10225,1.94265 1.63592,0.51122 1.02245,-0.40898 z"
       id="path352" /><path
       style="fill:#000000;stroke-width:0.268886"
       d="m 109.17894,122.54034 7.9198,4.29427 1.68956,-1.32918 0.63357,-6.44141 -1.68955,-3.68081 -0.95038,-0.51123 -0.21118,-1.8404 -4.1183,-3.27183 -3.27352,-1.43144 -2.42873,-0.20449 -0.21119,9.40653 2.00635,1.63591 0.1056,-1.63591 1.37276,-0.61347 1.58396,0.71571 0.10559,1.94265 -1.68955,0.51122 -1.05598,-0.40898 z"
       id="path352-1" /></g><text
     xml:space="preserve"
     style="font-size:3.175px;display:inline;fill:#000000;stroke-width:0.264583"
     x="-0.16743164"
     y="37.629066"
     id="text569"><tspan
       id="tspan567"
       style="font-style:normal;font-variant:normal;font-weight:normal;font-stretch:normal;font-size:9.525px;font-family:Arial;-inkscape-font-specification:'Arial, Normal';font-variant-ligatures:normal;font-variant-caps:normal;font-variant-numeric:normal;font-variant-east-asian:normal;stroke-width:0.264583"
       x="-0.16743164"
       y="37.629066"
       sodipodi:role="line">technotrends</tspan></text><path
     style="display:inline;fill:#000000;stroke-width:0.264583"
     d="m 27.273759,15.76877 1.8404,-0.81796 8.07735,4.29428 v 1.63592 l -3.78306,3.27183 -3.16959,1.53367 h -2.9651 l -0.71572,-0.71571 -1.12469,0.9202 -4.29428,-1.22694 -4.192031,-2.65836 -1.022448,-1.32918 v -0.81796 l 0.102243,-0.71571 7.463866,-4.49877 2.14714,1.22693 0.30674,0.51123 -1.1247,0.30673 0.20449,1.94265 1.27806,0.9202 1.5848,-0.86908 -0.0256,-1.78928 -0.99689,-0.53678 z"
     id="path407" /></svg>
